#!OML:ASF E:\emotionWalksFemale\Project 1\Capture day 1\Session 1\Female1.ASF
:FULLY-SPECIFIED
:DEGREES
699
root 7.85226 15.5233 26.2342 -180.005 12.7516 -181.984
lowerback 4.60757 2.94361 1.47701
upperback -5.61788 4.29761 0.0588832
thorax -8.38802 2.1005 -1.27892
lowerneck -8.42453 -0.317055 -3.06376
upperneck 15.3413 -0.0153147 2.64327
head 6.03149 0.183051 1.35858
rclavicle 6.31141e-014 7.15625e-015
rhumerus -44.9373 11.9696 -93.4624
rradius 39.424
rwrist 2.29291
rhand 160.166 -70.9266
rfingers 7.12502
rthumb -173.5 -41.0464
lclavicle 6.31141e-014 7.15625e-015
lhumerus -44.1883 -1.33721 86.2764
lradius 38.5199
lwrist -12.4059
lhand -9.4955 -39.1738
lfingers 7.12502
lthumb 16.4694 -9.8529
rfemur -7.00013 0.558721 16.4767
rtibia 64.5342
rfoot 8.61619 -6.33706
rtoes 1.24866
lfemur -5.32066 -14.1327 -31.3652
ltibia 15.456
lfoot -16.3647 24.7239
ltoes -1.67964
700
root 7.85057 15.5226 26.1777 -180.111 12.5979 -182.02
lowerback 4.72976 2.79938 1.18514
upperback -5.50943 4.07095 0.115255
thorax -8.37159 2.00498 -1.03479
lowerneck -8.8644 -0.217588 -2.69863
upperneck 15.5413 0.10612 2.40644
head 6.16766 0.243757 1.23511
rclavicle -5.56597e-015 -2.50469e-014
rhumerus -44.8853 12.0717 -93.5334
rradius 39.7169
rwrist 2.24119
rhand 159.87 -71.0792
rfingers 7.12502
rthumb -173.786 -41.1904
lclavicle -5.56597e-015 -2.50469e-014
lhumerus -43.8976 -1.18029 86.243
lradius 38.6764
lwrist -12.0858
lhand -9.23244 -39.0842
lfingers 7.12502
lthumb 16.7227 -9.78447
rfemur -8.06108 0.152655 16.5313
rtibia 66.0306
rfoot 7.9027 -6.28144
rtoes 0.909513
lfemur -4.72953 -14.02 -31.5371
ltibia 14.9688
lfoot -16.3517 24.4907
ltoes -1.63029
701
root 7.86446 15.5257 26.1159 -180.251 12.5336 -182.136
lowerback 4.69588 2.78721 0.728999
upperback -5.40803 4.00595 0.135712
thorax -8.27504 1.99975 -0.746504
lowerneck -9.11009 -0.225045 -2.62745
upperneck 15.7759 0.0964942 2.3947
head 6.28493 0.245837 1.2218
rclavicle -2.95195e-014 -2.10712e-014
rhumerus -44.9097 11.9046 -93.4581
rradius 39.9291
rwrist 2.42891
rhand 159.903 -71.1735
rfingers 7.12502
rthumb -173.753 -41.2856
lclavicle -2.95195e-014 -2.10712e-014
lhumerus -43.7198 -1.37304 86.3611
lradius 38.8914
lwrist -11.7166
lhand -9.09597 -38.8494
lfingers 7.12502
lthumb 16.8541 -9.56083
rfemur -8.96003 -0.0112449 16.6271
rtibia 67.288
rfoot 7.35498 -6.31084
rtoes 0.304717
lfemur -3.9584 -13.764 -31.7345
ltibia 14.2839
lfoot -16.338 24.2289
ltoes -1.28598
702
root 7.82488 15.5151 26.075 -180.389 12.5224 -182.197
lowerback 5.19033 2.80124 1.34266
upperback -5.47077 4.06783 -0.0801891
thorax -8.57485 1.97747 -1.35299
lowerneck -8.94594 -0.251088 -2.71195
upperneck 15.7586 0.0461917 2.58756
head 6.25188 0.234226 1.29283
rclavicle -1.07841e-014 -1.27222e-014
rhumerus -44.9882 11.5667 -93.4335
rradius 40.0377
rwrist 2.62839
rhand 159.879 -71.2324
rfingers 7.12502
rthumb -173.777 -41.3438
lclavicle -1.07841e-014 -1.27222e-014
lhumerus -43.6808 -1.68055 86.4348
lradius 38.8173
lwrist -11.8259
lhand -9.67282 -38.9286
lfingers 7.12502
lthumb 16.2987 -9.59357
rfemur -10.3228 -0.307371 16.3775
rtibia 68.7018
rfoot 7.0999 -5.98659
rtoes 0.281954
lfemur -3.46186 -14.1286 -32.0934
ltibia 13.7602
lfoot -16.4356 24.6172
ltoes -0.13419
703
root 7.80622 15.5158 26.0155 -181.165 9.73255 -182.343
lowerback 5.81432 1.88413 1.63348
upperback -5.25813 2.83453 -0.202296
thorax -8.72364 1.33898 -1.51337
lowerneck -8.70204 -0.252089 -2.83492
upperneck 15.5673 0.0405117 2.69101
head 6.14893 0.230104 1.3431
rclavicle 3.38928e-014 2.10712e-014
rhumerus -44.9686 11.3838 -93.3491
rradius 39.9657
rwrist 2.61414
rhand 159.701 -71.4159
rfingers 7.12502
rthumb -173.949 -41.5223
lclavicle 3.38928e-014 2.10712e-014
lhumerus -43.6155 -1.75412 86.581
lradius 38.601
lwrist -12.3072
lhand -10.4776 -39.4987
lfingers 7.12502
lthumb 15.5237 -10.1019
rfemur -9.77879 -3.04878 16.1762
rtibia 69.5721
rfoot 6.13805 -6.06663
rtoes 0.180655
lfemur -1.91296 -14.9376 -32.6329
ltibia 13.0718
lfoot -15.538 23.2894
ltoes -3.32882
704
root 7.81358 15.5157 25.9945 -180.293 11.8623 -182.461
lowerback 5.52712 2.62582 0.844368
upperback -5.59541 3.80168 -0.0282605
thorax -8.95194 1.87642 -1.01386
lowerneck -8.65424 -0.275197 -2.9953
upperneck 15.5148 0.020257 2.7572
head 6.12463 0.215162 1.38843
rclavicle 2.65874e-014 6.75868e-015
rhumerus -44.7042 11.3801 -93.1539
rradius 39.5701
rwrist 2.53653
rhand 159.847 -71.6469
rfingers 7.12502
rthumb -173.808 -41.7574
lclavicle 2.65874e-014 6.75868e-015
lhumerus -43.4482 -1.88719 86.9878
lradius 40.2095
lwrist -8.73708
lhand -4.32353 -36.8716
lfingers 7.12502
lthumb 21.4433 -8.03839
rfemur -12.8906 -1.25795 16.3206
rtibia 70.8946
rfoot 6.38055 -6.08362
rtoes -0.612056
lfemur -2.71137 -13.9641 -32.5367
ltibia 12.6665
lfoot -16.0151 24.2031
ltoes -2.48582
705
root 7.80139 15.5205 25.9371 -181.03 8.24599 -182.437
lowerback 6.11007 1.44525 1.18061
upperback -5.34735 2.21934 -0.0677529
thorax -9.03781 1.06888 -1.05056
lowerneck -8.62507 -0.326297 -3.12332
upperneck 15.5774 -0.0332876 2.80517
head 6.14106 0.187852 1.42142
rclavicle -2.43511e-014 -1.86858e-014
rhumerus -44.9527 11.2293 -92.9854
rradius 40.1707
rwrist 2.43547
rhand 159.836 -71.4138
rfingers 7.12502
rthumb -173.819 -41.524
lclavicle -2.43511e-014 -1.86858e-014
lhumerus -43.4867 -2.03218 87.2394
lradius 39.7092
lwrist -10.2738
lhand -7.1723 -37.9988
lfingers 7.12502
lthumb 18.7051 -8.87811
rfemur -11.9916 -4.71553 16.3328
rtibia 71.4844
rfoot 4.9864 -6.22119
rtoes -0.225281
lfemur -1.277 -14.9713 -32.8284
ltibia 12.2691
lfoot -14.5772 22.3994
ltoes -7.83794
